<svg viewBox="0 0 20 17" fill="none" xmlns="http://www.w3.org/2000/svg">
<path fill-rule="evenodd" clip-rule="evenodd" d="M5.215 2.10314L4.7025 3.64286H3.125C2.2962 3.64286 1.50134 3.96269 0.915291 4.532C0.32924 5.1013 0 5.87345 0 6.67857V13.9643C0 14.7694 0.32924 15.5416 0.915291 16.1109C1.50134 16.6802 2.2962 17 3.125 17H16.875C17.7038 17 18.4987 16.6802 19.0847 16.1109C19.6708 15.5416 20 14.7694 20 13.9643V6.67857C20 5.87345 19.6708 5.1013 19.0847 4.532C18.4987 3.96269 17.7038 3.64286 16.875 3.64286H15.2963L14.785 2.10314C14.5819 1.49194 14.1845 0.95907 13.6499 0.581158C13.1153 0.203246 12.4711 -0.000227811 11.81 1.91407e-07H8.19C7.52886 -0.000227811 6.88467 0.203246 6.3501 0.581158C5.81552 0.95907 5.4181 1.49194 5.215 2.10314ZM3.125 4.85714H5.6125L6.40375 2.47714C6.52544 2.11024 6.76382 1.79031 7.08458 1.56337C7.40533 1.33644 7.79194 1.21422 8.18875 1.21429H11.8113C12.2078 1.21447 12.5942 1.33682 12.9147 1.56373C13.2352 1.79064 13.4734 2.11044 13.595 2.47714L14.3862 4.85714H16.875C17.3723 4.85714 17.8492 5.04904 18.2008 5.39063C18.5525 5.73221 18.75 6.1955 18.75 6.67857V13.9643C18.75 14.4474 18.5525 14.9106 18.2008 15.2522C17.8492 15.5938 17.3723 15.7857 16.875 15.7857H3.125C2.62772 15.7857 2.15081 15.5938 1.79917 15.2522C1.44754 14.9106 1.25 14.4474 1.25 13.9643V6.67857C1.25 6.1955 1.44754 5.73221 1.79917 5.39063C2.15081 5.04904 2.62772 4.85714 3.125 4.85714Z" fill="currentColor"/>
<path fill-rule="evenodd" clip-rule="evenodd" d="M6.5 9.5C6.5 10.4283 6.86875 11.3185 7.52513 11.9749C8.1815 12.6313 9.07174 13 10 13C10.9283 13 11.8185 12.6313 12.4749 11.9749C13.1313 11.3185 13.5 10.4283 13.5 9.5C13.5 8.57174 13.1313 7.6815 12.4749 7.02513C11.8185 6.36875 10.9283 6 10 6C9.07174 6 8.1815 6.36875 7.52513 7.02513C6.86875 7.6815 6.5 8.57174 6.5 9.5ZM12.3333 9.5C12.3333 10.1188 12.0875 10.7123 11.6499 11.1499C11.2123 11.5875 10.6188 11.8333 10 11.8333C9.38116 11.8333 8.78767 11.5875 8.35008 11.1499C7.9125 10.7123 7.66667 10.1188 7.66667 9.5C7.66667 8.88116 7.9125 8.28767 8.35008 7.85008C8.78767 7.4125 9.38116 7.16667 10 7.16667C10.6188 7.16667 11.2123 7.4125 11.6499 7.85008C12.0875 8.28767 12.3333 8.88116 12.3333 9.5Z" fill="currentColor"/>
</svg>
