<svg viewBox="0 0 18 18" fill="none" xmlns="http://www.w3.org/2000/svg">
<path d="M10.2915 2.83873C10.2915 2.83873 10.5328 3.07998 10.6873 3.23457M15.0415 7.58873L14.6457 7.1929M1.58317 14.7137L3.1665 16.2971M4.74984 13.1304L11.0832 6.79707M14.6457 7.1929L16.8513 4.98732C17.164 4.67461 17.1663 4.1719 16.8576 3.86315L14.0171 1.02265C13.9431 0.948862 13.8552 0.890459 13.7585 0.850809C13.6618 0.81116 13.5582 0.79105 13.4537 0.791639C13.3492 0.792227 13.2458 0.813504 13.1496 0.85424C13.0533 0.894976 12.9661 0.954366 12.8929 1.02898C12.8929 1.02898 11.5487 2.37323 10.6873 3.23457M14.6457 7.1929L6.33317 15.5054L0.791504 17.0887L2.37484 11.5471C2.37484 11.5471 7.4411 6.4808 10.6873 3.23457M14.6457 7.1929C14.6457 7.1929 12.2332 4.78039 10.6873 3.23457" stroke="currentColor"/>
</svg>
